<svg width="900" height="900" viewBox="0 0 900 900" fill="none" xmlns="http://www.w3.org/2000/svg">
<path d="M375 97C380.523 97 385 92.5228 385 87C385 81.4772 380.523 77 375 77C369.477 77 365 81.4772 365 87C365 92.5228 369.477 97 375 97Z" fill="black"/>
<path d="M405 97C410.523 97 415 92.5228 415 87C415 81.4772 410.523 77 405 77C399.477 77 395 81.4772 395 87C395 92.5228 399.477 97 405 97Z" fill="black"/>
<path d="M435 97C440.523 97 445 92.5228 445 87C445 81.4772 440.523 77 435 77C429.477 77 425 81.4772 425 87C425 92.5228 429.477 97 435 97Z" fill="black"/>
<path d="M465 97C470.523 97 475 92.5228 475 87C475 81.4772 470.523 77 465 77C459.477 77 455 81.4772 455 87C455 92.5228 459.477 97 465 97Z" fill="black"/>
<path d="M495 92C497.761 92 500 89.7614 500 87C500 84.2386 497.761 82 495 82C492.239 82 490 84.2386 490 87C490 89.7614 492.239 92 495 92Z" fill="black"/>
<path d="M285 127C290.523 127 295 122.523 295 117C295 111.477 290.523 107 285 107C279.477 107 275 111.477 275 117C275 122.523 279.477 127 285 127Z" fill="black"/>
<path d="M315 132C323.284 132 330 125.284 330 117C330 108.716 323.284 102 315 102C306.716 102 300 108.716 300 117C300 125.284 306.716 132 315 132Z" fill="black"/>
<path d="M345 132C353.284 132 360 125.284 360 117C360 108.716 353.284 102 345 102C336.716 102 330 108.716 330 117C330 125.284 336.716 132 345 132Z" fill="black"/>
<path d="M345 97C350.523 97 355 92.5228 355 87C355 81.4772 350.523 77 345 77C339.477 77 335 81.4772 335 87C335 92.5228 339.477 97 345 97Z" fill="black"/>
<path d="M315 92C317.761 92 320 89.7614 320 87C320 84.2386 317.761 82 315 82C312.239 82 310 84.2386 310 87C310 89.7614 312.239 92 315 92Z" fill="black"/>
<path d="M375 137C386.046 137 395 128.046 395 117C395 105.954 386.046 97 375 97C363.954 97 355 105.954 355 117C355 128.046 363.954 137 375 137Z" fill="black"/>
<path d="M405 137C416.046 137 425 128.046 425 117C425 105.954 416.046 97 405 97C393.954 97 385 105.954 385 117C385 128.046 393.954 137 405 137Z" fill="black"/>
<path d="M435 137C446.046 137 455 128.046 455 117C455 105.954 446.046 97 435 97C423.954 97 415 105.954 415 117C415 128.046 423.954 137 435 137Z" fill="black"/>
<path d="M465 137C476.046 137 485 128.046 485 117C485 105.954 476.046 97 465 97C453.954 97 445 105.954 445 117C445 128.046 453.954 137 465 137Z" fill="black"/>
<path d="M495 137C506.046 137 515 128.046 515 117C515 105.954 506.046 97 495 97C483.954 97 475 105.954 475 117C475 128.046 483.954 137 495 137Z" fill="black"/>
<path d="M525 132C533.284 132 540 125.284 540 117C540 108.716 533.284 102 525 102C516.716 102 510 108.716 510 117C510 125.284 516.716 132 525 132Z" fill="black"/>
<path d="M555 127C560.523 127 565 122.523 565 117C565 111.477 560.523 107 555 107C549.477 107 545 111.477 545 117C545 122.523 549.477 127 555 127Z" fill="black"/>
<path d="M585 122C587.761 122 590 119.761 590 117C590 114.239 587.761 112 585 112C582.239 112 580 114.239 580 117C580 119.761 582.239 122 585 122Z" fill="black"/>
<path d="M255 157C260.523 157 265 152.523 265 147C265 141.477 260.523 137 255 137C249.477 137 245 141.477 245 147C245 152.523 249.477 157 255 157Z" fill="black"/>
<path d="M285 162C293.284 162 300 155.284 300 147C300 138.716 293.284 132 285 132C276.716 132 270 138.716 270 147C270 155.284 276.716 162 285 162Z" fill="black"/>
<path d="M315 167C326.046 167 335 158.046 335 147C335 135.954 326.046 127 315 127C303.954 127 295 135.954 295 147C295 158.046 303.954 167 315 167Z" fill="black"/>
<path d="M345 167C356.046 167 365 158.046 365 147C365 135.954 356.046 127 345 127C333.954 127 325 135.954 325 147C325 158.046 333.954 167 345 167Z" fill="black"/>
<path d="M375 167C386.046 167 395 158.046 395 147C395 135.954 386.046 127 375 127C363.954 127 355 135.954 355 147C355 158.046 363.954 167 375 167Z" fill="black"/>
<path d="M405 167C416.046 167 425 158.046 425 147C425 135.954 416.046 127 405 127C393.954 127 385 135.954 385 147C385 158.046 393.954 167 405 167Z" fill="black"/>
<path d="M435 167C446.046 167 455 158.046 455 147C455 135.954 446.046 127 435 127C423.954 127 415 135.954 415 147C415 158.046 423.954 167 435 167Z" fill="black"/>
<path d="M465 167C476.046 167 485 158.046 485 147C485 135.954 476.046 127 465 127C453.954 127 445 135.954 445 147C445 158.046 453.954 167 465 167Z" fill="black"/>
<path d="M495 167C506.046 167 515 158.046 515 147C515 135.954 506.046 127 495 127C483.954 127 475 135.954 475 147C475 158.046 483.954 167 495 167Z" fill="black"/>
<path d="M525 167C536.046 167 545 158.046 545 147C545 135.954 536.046 127 525 127C513.954 127 505 135.954 505 147C505 158.046 513.954 167 525 167Z" fill="black"/>
<path d="M555 167C566.046 167 575 158.046 575 147C575 135.954 566.046 127 555 127C543.954 127 535 135.954 535 147C535 158.046 543.954 167 555 167Z" fill="black"/>
<path d="M585 162C593.284 162 600 155.284 600 147C600 138.716 593.284 132 585 132C576.716 132 570 138.716 570 147C570 155.284 576.716 162 585 162Z" fill="black"/>
<path d="M615 152C617.761 152 620 149.761 620 147C620 144.239 617.761 142 615 142C612.239 142 610 144.239 610 147C610 149.761 612.239 152 615 152Z" fill="black"/>
<path d="M225 187C230.523 187 235 182.523 235 177C235 171.477 230.523 167 225 167C219.477 167 215 171.477 215 177C215 182.523 219.477 187 225 187Z" fill="black"/>
<path d="M195 212C197.761 212 200 209.761 200 207C200 204.239 197.761 202 195 202C192.239 202 190 204.239 190 207C190 209.761 192.239 212 195 212Z" fill="black"/>
<path d="M255 192C263.284 192 270 185.284 270 177C270 168.716 263.284 162 255 162C246.716 162 240 168.716 240 177C240 185.284 246.716 192 255 192Z" fill="black"/>
<path d="M285 197C296.046 197 305 188.046 305 177C305 165.954 296.046 157 285 157C273.954 157 265 165.954 265 177C265 188.046 273.954 197 285 197Z" fill="black"/>
<path d="M315 192C323.284 192 330 185.284 330 177C330 168.716 323.284 162 315 162C306.716 162 300 168.716 300 177C300 185.284 306.716 192 315 192Z" fill="black"/>
<path d="M345 187C350.523 187 355 182.523 355 177C355 171.477 350.523 167 345 167C339.477 167 335 171.477 335 177C335 182.523 339.477 187 345 187Z" fill="black"/>
<path d="M345 212C347.761 212 350 209.761 350 207C350 204.239 347.761 202 345 202C342.239 202 340 204.239 340 207C340 209.761 342.239 212 345 212Z" fill="black"/>
<path d="M375 187C380.523 187 385 182.523 385 177C385 171.477 380.523 167 375 167C369.477 167 365 171.477 365 177C365 182.523 369.477 187 375 187Z" fill="black"/>
<path d="M405 187C410.523 187 415 182.523 415 177C415 171.477 410.523 167 405 167C399.477 167 395 171.477 395 177C395 182.523 399.477 187 405 187Z" fill="black"/>
<path d="M435 192C443.284 192 450 185.284 450 177C450 168.716 443.284 162 435 162C426.716 162 420 168.716 420 177C420 185.284 426.716 192 435 192Z" fill="black"/>
<path d="M465 192C473.284 192 480 185.284 480 177C480 168.716 473.284 162 465 162C456.716 162 450 168.716 450 177C450 185.284 456.716 192 465 192Z" fill="black"/>
<path d="M495 197C506.046 197 515 188.046 515 177C515 165.954 506.046 157 495 157C483.954 157 475 165.954 475 177C475 188.046 483.954 197 495 197Z" fill="black"/>
<path d="M525 197C536.046 197 545 188.046 545 177C545 165.954 536.046 157 525 157C513.954 157 505 165.954 505 177C505 188.046 513.954 197 525 197Z" fill="black"/>
<path d="M555 197C566.046 197 575 188.046 575 177C575 165.954 566.046 157 555 157C543.954 157 535 165.954 535 177C535 188.046 543.954 197 555 197Z" fill="black"/>
<path d="M585 197C596.046 197 605 188.046 605 177C605 165.954 596.046 157 585 157C573.954 157 565 165.954 565 177C565 188.046 573.954 197 585 197Z" fill="black"/>
<path d="M615 192C623.284 192 630 185.284 630 177C630 168.716 623.284 162 615 162C606.716 162 600 168.716 600 177C600 185.284 606.716 192 615 192Z" fill="black"/>
<path d="M225 222C233.284 222 240 215.284 240 207C240 198.716 233.284 192 225 192C216.716 192 210 198.716 210 207C210 215.284 216.716 222 225 222Z" fill="black"/>
<path d="M255 227C266.046 227 275 218.046 275 207C275 195.954 266.046 187 255 187C243.954 187 235 195.954 235 207C235 218.046 243.954 227 255 227Z" fill="black"/>
<path d="M285 222C293.284 222 300 215.284 300 207C300 198.716 293.284 192 285 192C276.716 192 270 198.716 270 207C270 215.284 276.716 222 285 222Z" fill="black"/>
<path d="M315 217C320.523 217 325 212.523 325 207C325 201.477 320.523 197 315 197C309.477 197 305 201.477 305 207C305 212.523 309.477 217 315 217Z" fill="black"/>
<path d="M405 212C407.761 212 410 209.761 410 207C410 204.239 407.761 202 405 202C402.239 202 400 204.239 400 207C400 209.761 402.239 212 405 212Z" fill="black"/>
<path d="M435 217C440.523 217 445 212.523 445 207C445 201.477 440.523 197 435 197C429.477 197 425 201.477 425 207C425 212.523 429.477 217 435 217Z" fill="black"/>
<path d="M465 222C473.284 222 480 215.284 480 207C480 198.716 473.284 192 465 192C456.716 192 450 198.716 450 207C450 215.284 456.716 222 465 222Z" fill="black"/>
<path d="M495 222C503.284 222 510 215.284 510 207C510 198.716 503.284 192 495 192C486.716 192 480 198.716 480 207C480 215.284 486.716 222 495 222Z" fill="black"/>
<path d="M525 227C536.046 227 545 218.046 545 207C545 195.954 536.046 187 525 187C513.954 187 505 195.954 505 207C505 218.046 513.954 227 525 227Z" fill="black"/>
<path d="M555 227C566.046 227 575 218.046 575 207C575 195.954 566.046 187 555 187C543.954 187 535 195.954 535 207C535 218.046 543.954 227 555 227Z" fill="black"/>
<path d="M585 227C596.046 227 605 218.046 605 207C605 195.954 596.046 187 585 187C573.954 187 565 195.954 565 207C565 218.046 573.954 227 585 227Z" fill="black"/>
<path d="M615 227C626.046 227 635 218.046 635 207C635 195.954 626.046 187 615 187C603.954 187 595 195.954 595 207C595 218.046 603.954 227 615 227Z" fill="black"/>
<path d="M195 247C200.523 247 205 242.523 205 237C205 231.477 200.523 227 195 227C189.477 227 185 231.477 185 237C185 242.523 189.477 247 195 247Z" fill="black"/>
<path d="M225 257C236.046 257 245 248.046 245 237C245 225.954 236.046 217 225 217C213.954 217 205 225.954 205 237C205 248.046 213.954 257 225 257Z" fill="black"/>
<path d="M255 252C263.284 252 270 245.284 270 237C270 228.716 263.284 222 255 222C246.716 222 240 228.716 240 237C240 245.284 246.716 252 255 252Z" fill="black"/>
<path d="M285 247C290.523 247 295 242.523 295 237C295 231.477 290.523 227 285 227C279.477 227 275 231.477 275 237C275 242.523 279.477 247 285 247Z" fill="black"/>
<path d="M435 242C437.761 242 440 239.761 440 237C440 234.239 437.761 232 435 232C432.239 232 430 234.239 430 237C430 239.761 432.239 242 435 242Z" fill="black"/>
<path d="M465 247C470.523 247 475 242.523 475 237C475 231.477 470.523 227 465 227C459.477 227 455 231.477 455 237C455 242.523 459.477 247 465 247Z" fill="black"/>
<path d="M495 252C503.284 252 510 245.284 510 237C510 228.716 503.284 222 495 222C486.716 222 480 228.716 480 237C480 245.284 486.716 252 495 252Z" fill="black"/>
<path d="M525 257C536.046 257 545 248.046 545 237C545 225.954 536.046 217 525 217C513.954 217 505 225.954 505 237C505 248.046 513.954 257 525 257Z" fill="black"/>
<path d="M555 257C566.046 257 575 248.046 575 237C575 225.954 566.046 217 555 217C543.954 217 535 225.954 535 237C535 248.046 543.954 257 555 257Z" fill="black"/>
<path d="M585 257C596.046 257 605 248.046 605 237C605 225.954 596.046 217 585 217C573.954 217 565 225.954 565 237C565 248.046 573.954 257 585 257Z" fill="black"/>
<path d="M615 257C626.046 257 635 248.046 635 237C635 225.954 626.046 217 615 217C603.954 217 595 225.954 595 237C595 248.046 603.954 257 615 257Z" fill="black"/>
<path d="M195 282C203.284 282 210 275.284 210 267C210 258.716 203.284 252 195 252C186.716 252 180 258.716 180 267C180 275.284 186.716 282 195 282Z" fill="black"/>
<path d="M225 287C236.046 287 245 278.046 245 267C245 255.954 236.046 247 225 247C213.954 247 205 255.954 205 267C205 278.046 213.954 287 225 287Z" fill="black"/>
<path d="M255 282C263.284 282 270 275.284 270 267C270 258.716 263.284 252 255 252C246.716 252 240 258.716 240 267C240 275.284 246.716 282 255 282Z" fill="black"/>
<path d="M285 272C287.761 272 290 269.761 290 267C290 264.239 287.761 262 285 262C282.239 262 280 264.239 280 267C280 269.761 282.239 272 285 272Z" fill="black"/>
<path d="M465 277C470.523 277 475 272.523 475 267C475 261.477 470.523 257 465 257C459.477 257 455 261.477 455 267C455 272.523 459.477 277 465 277Z" fill="black"/>
<path d="M495 282C503.284 282 510 275.284 510 267C510 258.716 503.284 252 495 252C486.716 252 480 258.716 480 267C480 275.284 486.716 282 495 282Z" fill="black"/>
<path d="M525 287C536.046 287 545 278.046 545 267C545 255.954 536.046 247 525 247C513.954 247 505 255.954 505 267C505 278.046 513.954 287 525 287Z" fill="black"/>
<path d="M555 287C566.046 287 575 278.046 575 267C575 255.954 566.046 247 555 247C543.954 247 535 255.954 535 267C535 278.046 543.954 287 555 287Z" fill="black"/>
<path d="M585 287C596.046 287 605 278.046 605 267C605 255.954 596.046 247 585 247C573.954 247 565 255.954 565 267C565 278.046 573.954 287 585 287Z" fill="black"/>
<path d="M615 287C626.046 287 635 278.046 635 267C635 255.954 626.046 247 615 247C603.954 247 595 255.954 595 267C595 278.046 603.954 287 615 287Z" fill="black"/>
<path d="M195 312C203.284 312 210 305.284 210 297C210 288.716 203.284 282 195 282C186.716 282 180 288.716 180 297C180 305.284 186.716 312 195 312Z" fill="black"/>
<path d="M225 317C236.046 317 245 308.046 245 297C245 285.954 236.046 277 225 277C213.954 277 205 285.954 205 297C205 308.046 213.954 317 225 317Z" fill="black"/>
<path d="M255 312C263.284 312 270 305.284 270 297C270 288.716 263.284 282 255 282C246.716 282 240 288.716 240 297C240 305.284 246.716 312 255 312Z" fill="black"/>
<path d="M285 307C290.523 307 295 302.523 295 297C295 291.477 290.523 287 285 287C279.477 287 275 291.477 275 297C275 302.523 279.477 307 285 307Z" fill="black"/>
<path d="M315 302C317.761 302 320 299.761 320 297C320 294.239 317.761 292 315 292C312.239 292 310 294.239 310 297C310 299.761 312.239 302 315 302Z" fill="black"/>
<path d="M435 307C440.523 307 445 302.523 445 297C445 291.477 440.523 287 435 287C429.477 287 425 291.477 425 297C425 302.523 429.477 307 435 307Z" fill="black"/>
<path d="M465 307C470.523 307 475 302.523 475 297C475 291.477 470.523 287 465 287C459.477 287 455 291.477 455 297C455 302.523 459.477 307 465 307Z" fill="black"/>
<path d="M495 312C503.284 312 510 305.284 510 297C510 288.716 503.284 282 495 282C486.716 282 480 288.716 480 297C480 305.284 486.716 312 495 312Z" fill="black"/>
<path d="M525 317C536.046 317 545 308.046 545 297C545 285.954 536.046 277 525 277C513.954 277 505 285.954 505 297C505 308.046 513.954 317 525 317Z" fill="black"/>
<path d="M555 317C566.046 317 575 308.046 575 297C575 285.954 566.046 277 555 277C543.954 277 535 285.954 535 297C535 308.046 543.954 317 555 317Z" fill="black"/>
<path d="M585 317C596.046 317 605 308.046 605 297C605 285.954 596.046 277 585 277C573.954 277 565 285.954 565 297C565 308.046 573.954 317 585 317Z" fill="black"/>
<path d="M615 317C626.046 317 635 308.046 635 297C635 285.954 626.046 277 615 277C603.954 277 595 285.954 595 297C595 308.046 603.954 317 615 317Z" fill="black"/>
<path d="M195 342C203.284 342 210 335.284 210 327C210 318.716 203.284 312 195 312C186.716 312 180 318.716 180 327C180 335.284 186.716 342 195 342Z" fill="black"/>
<path d="M225 347C236.046 347 245 338.046 245 327C245 315.954 236.046 307 225 307C213.954 307 205 315.954 205 327C205 338.046 213.954 347 225 347Z" fill="black"/>
<path d="M255 342C263.284 342 270 335.284 270 327C270 318.716 263.284 312 255 312C246.716 312 240 318.716 240 327C240 335.284 246.716 342 255 342Z" fill="black"/>
<path d="M285 342C293.284 342 300 335.284 300 327C300 318.716 293.284 312 285 312C276.716 312 270 318.716 270 327C270 335.284 276.716 342 285 342Z" fill="black"/>
<path d="M315 337C320.523 337 325 332.523 325 327C325 321.477 320.523 317 315 317C309.477 317 305 321.477 305 327C305 332.523 309.477 337 315 337Z" fill="black"/>
<path d="M345 337C350.523 337 355 332.523 355 327C355 321.477 350.523 317 345 317C339.477 317 335 321.477 335 327C335 332.523 339.477 337 345 337Z" fill="black"/>
<path d="M375 332C377.761 332 380 329.761 380 327C380 324.239 377.761 322 375 322C372.239 322 370 324.239 370 327C370 329.761 372.239 332 375 332Z" fill="black"/>
<path d="M405 337C410.523 337 415 332.523 415 327C415 321.477 410.523 317 405 317C399.477 317 395 321.477 395 327C395 332.523 399.477 337 405 337Z" fill="black"/>
<path d="M435 337C440.523 337 445 332.523 445 327C445 321.477 440.523 317 435 317C429.477 317 425 321.477 425 327C425 332.523 429.477 337 435 337Z" fill="black"/>
<path d="M465 342C473.284 342 480 335.284 480 327C480 318.716 473.284 312 465 312C456.716 312 450 318.716 450 327C450 335.284 456.716 342 465 342Z" fill="black"/>
<path d="M495 347C506.046 347 515 338.046 515 327C515 315.954 506.046 307 495 307C483.954 307 475 315.954 475 327C475 338.046 483.954 347 495 347Z" fill="black"/>
<path d="M525 347C536.046 347 545 338.046 545 327C545 315.954 536.046 307 525 307C513.954 307 505 315.954 505 327C505 338.046 513.954 347 525 347Z" fill="black"/>
<path d="M555 347C566.046 347 575 338.046 575 327C575 315.954 566.046 307 555 307C543.954 307 535 315.954 535 327C535 338.046 543.954 347 555 347Z" fill="black"/>
<path d="M585 347C596.046 347 605 338.046 605 327C605 315.954 596.046 307 585 307C573.954 307 565 315.954 565 327C565 338.046 573.954 347 585 347Z" fill="black"/>
<path d="M615 347C626.046 347 635 338.046 635 327C635 315.954 626.046 307 615 307C603.954 307 595 315.954 595 327C595 338.046 603.954 347 615 347Z" fill="black"/>
<path d="M195 372C203.284 372 210 365.284 210 357C210 348.716 203.284 342 195 342C186.716 342 180 348.716 180 357C180 365.284 186.716 372 195 372Z" fill="black"/>
<path d="M225 377C236.046 377 245 368.046 245 357C245 345.954 236.046 337 225 337C213.954 337 205 345.954 205 357C205 368.046 213.954 377 225 377Z" fill="black"/>
<path d="M255 377C266.046 377 275 368.046 275 357C275 345.954 266.046 337 255 337C243.954 337 235 345.954 235 357C235 368.046 243.954 377 255 377Z" fill="black"/>
<path d="M285 372C293.284 372 300 365.284 300 357C300 348.716 293.284 342 285 342C276.716 342 270 348.716 270 357C270 365.284 276.716 372 285 372Z" fill="black"/>
<path d="M315 372C323.284 372 330 365.284 330 357C330 348.716 323.284 342 315 342C306.716 342 300 348.716 300 357C300 365.284 306.716 372 315 372Z" fill="black"/>
<path d="M345 372C353.284 372 360 365.284 360 357C360 348.716 353.284 342 345 342C336.716 342 330 348.716 330 357C330 365.284 336.716 372 345 372Z" fill="black"/>
<path d="M375 372C383.284 372 390 365.284 390 357C390 348.716 383.284 342 375 342C366.716 342 360 348.716 360 357C360 365.284 366.716 372 375 372Z" fill="black"/>
<path d="M405 372C413.284 372 420 365.284 420 357C420 348.716 413.284 342 405 342C396.716 342 390 348.716 390 357C390 365.284 396.716 372 405 372Z" fill="black"/>
<path d="M435 372C443.284 372 450 365.284 450 357C450 348.716 443.284 342 435 342C426.716 342 420 348.716 420 357C420 365.284 426.716 372 435 372Z" fill="black"/>
<path d="M465 372C473.284 372 480 365.284 480 357C480 348.716 473.284 342 465 342C456.716 342 450 348.716 450 357C450 365.284 456.716 372 465 372Z" fill="black"/>
<path d="M495 377C506.046 377 515 368.046 515 357C515 345.954 506.046 337 495 337C483.954 337 475 345.954 475 357C475 368.046 483.954 377 495 377Z" fill="black"/>
<path d="M525 377C536.046 377 545 368.046 545 357C545 345.954 536.046 337 525 337C513.954 337 505 345.954 505 357C505 368.046 513.954 377 525 377Z" fill="black"/>
<path d="M555 377C566.046 377 575 368.046 575 357C575 345.954 566.046 337 555 337C543.954 337 535 345.954 535 357C535 368.046 543.954 377 555 377Z" fill="black"/>
<path d="M585 377C596.046 377 605 368.046 605 357C605 345.954 596.046 337 585 337C573.954 337 565 345.954 565 357C565 368.046 573.954 377 585 377Z" fill="black"/>
<path d="M615 377C626.046 377 635 368.046 635 357C635 345.954 626.046 337 615 337C603.954 337 595 345.954 595 357C595 368.046 603.954 377 615 377Z" fill="black"/>
<path d="M195 402C203.284 402 210 395.284 210 387C210 378.716 203.284 372 195 372C186.716 372 180 378.716 180 387C180 395.284 186.716 402 195 402Z" fill="black"/>
<path d="M225 152C227.761 152 230 149.761 230 147C230 144.239 227.761 142 225 142C222.239 142 220 144.239 220 147C220 149.761 222.239 152 225 152Z" fill="black"/>
<path d="M255 122C257.761 122 260 119.761 260 117C260 114.239 257.761 112 255 112C252.239 112 250 114.239 250 117C250 119.761 252.239 122 255 122Z" fill="black"/>
<path d="M225 407C236.046 407 245 398.046 245 387C245 375.954 236.046 367 225 367C213.954 367 205 375.954 205 387C205 398.046 213.954 407 225 407Z" fill="black"/>
<path d="M255 407C266.046 407 275 398.046 275 387C275 375.954 266.046 367 255 367C243.954 367 235 375.954 235 387C235 398.046 243.954 407 255 407Z" fill="black"/>
<path d="M285 407C296.046 407 305 398.046 305 387C305 375.954 296.046 367 285 367C273.954 367 265 375.954 265 387C265 398.046 273.954 407 285 407Z" fill="black"/>
<path d="M315 407C326.046 407 335 398.046 335 387C335 375.954 326.046 367 315 367C303.954 367 295 375.954 295 387C295 398.046 303.954 407 315 407Z" fill="black"/>
<path d="M345 407C356.046 407 365 398.046 365 387C365 375.954 356.046 367 345 367C333.954 367 325 375.954 325 387C325 398.046 333.954 407 345 407Z" fill="black"/>
<path d="M375 407C386.046 407 395 398.046 395 387C395 375.954 386.046 367 375 367C363.954 367 355 375.954 355 387C355 398.046 363.954 407 375 407Z" fill="black"/>
<path d="M405 407C416.046 407 425 398.046 425 387C425 375.954 416.046 367 405 367C393.954 367 385 375.954 385 387C385 398.046 393.954 407 405 407Z" fill="black"/>
<path d="M435 407C446.046 407 455 398.046 455 387C455 375.954 446.046 367 435 367C423.954 367 415 375.954 415 387C415 398.046 423.954 407 435 407Z" fill="black"/>
<path d="M465 407C476.046 407 485 398.046 485 387C485 375.954 476.046 367 465 367C453.954 367 445 375.954 445 387C445 398.046 453.954 407 465 407Z" fill="black"/>
<path d="M495 407C506.046 407 515 398.046 515 387C515 375.954 506.046 367 495 367C483.954 367 475 375.954 475 387C475 398.046 483.954 407 495 407Z" fill="black"/>
<path d="M525 407C536.046 407 545 398.046 545 387C545 375.954 536.046 367 525 367C513.954 367 505 375.954 505 387C505 398.046 513.954 407 525 407Z" fill="black"/>
<path d="M555 407C566.046 407 575 398.046 575 387C575 375.954 566.046 367 555 367C543.954 367 535 375.954 535 387C535 398.046 543.954 407 555 407Z" fill="black"/>
<path d="M585 407C596.046 407 605 398.046 605 387C605 375.954 596.046 367 585 367C573.954 367 565 375.954 565 387C565 398.046 573.954 407 585 407Z" fill="black"/>
<path d="M615 407C626.046 407 635 398.046 635 387C635 375.954 626.046 367 615 367C603.954 367 595 375.954 595 387C595 398.046 603.954 407 615 407Z" fill="black"/>
<path d="M195 427C200.523 427 205 422.523 205 417C205 411.477 200.523 407 195 407C189.477 407 185 411.477 185 417C185 422.523 189.477 427 195 427Z" fill="black"/>
<path d="M225 437C236.046 437 245 428.046 245 417C245 405.954 236.046 397 225 397C213.954 397 205 405.954 205 417C205 428.046 213.954 437 225 437Z" fill="black"/>
<path d="M255 437C266.046 437 275 428.046 275 417C275 405.954 266.046 397 255 397C243.954 397 235 405.954 235 417C235 428.046 243.954 437 255 437Z" fill="black"/>
<path d="M285 437C296.046 437 305 428.046 305 417C305 405.954 296.046 397 285 397C273.954 397 265 405.954 265 417C265 428.046 273.954 437 285 437Z" fill="black"/>
<path d="M315 437C326.046 437 335 428.046 335 417C335 405.954 326.046 397 315 397C303.954 397 295 405.954 295 417C295 428.046 303.954 437 315 437Z" fill="black"/>
<path d="M345 437C356.046 437 365 428.046 365 417C365 405.954 356.046 397 345 397C333.954 397 325 405.954 325 417C325 428.046 333.954 437 345 437Z" fill="black"/>
<path d="M375 437C386.046 437 395 428.046 395 417C395 405.954 386.046 397 375 397C363.954 397 355 405.954 355 417C355 428.046 363.954 437 375 437Z" fill="black"/>
<path d="M405 437C416.046 437 425 428.046 425 417C425 405.954 416.046 397 405 397C393.954 397 385 405.954 385 417C385 428.046 393.954 437 405 437Z" fill="black"/>
<path d="M435 437C446.046 437 455 428.046 455 417C455 405.954 446.046 397 435 397C423.954 397 415 405.954 415 417C415 428.046 423.954 437 435 437Z" fill="black"/>
<path d="M465 437C476.046 437 485 428.046 485 417C485 405.954 476.046 397 465 397C453.954 397 445 405.954 445 417C445 428.046 453.954 437 465 437Z" fill="black"/>
<path d="M495 437C506.046 437 515 428.046 515 417C515 405.954 506.046 397 495 397C483.954 397 475 405.954 475 417C475 428.046 483.954 437 495 437Z" fill="black"/>
<path d="M525 437C536.046 437 545 428.046 545 417C545 405.954 536.046 397 525 397C513.954 397 505 405.954 505 417C505 428.046 513.954 437 525 437Z" fill="black"/>
<path d="M555 437C566.046 437 575 428.046 575 417C575 405.954 566.046 397 555 397C543.954 397 535 405.954 535 417C535 428.046 543.954 437 555 437Z" fill="black"/>
<path d="M585 437C596.046 437 605 428.046 605 417C605 405.954 596.046 397 585 397C573.954 397 565 405.954 565 417C565 428.046 573.954 437 585 437Z" fill="black"/>
<path d="M615 437C626.046 437 635 428.046 635 417C635 405.954 626.046 397 615 397C603.954 397 595 405.954 595 417C595 428.046 603.954 437 615 437Z" fill="black"/>
<path d="M225 462C233.284 462 240 455.284 240 447C240 438.716 233.284 432 225 432C216.716 432 210 438.716 210 447C210 455.284 216.716 462 225 462Z" fill="black"/>
<path d="M255 467C266.046 467 275 458.046 275 447C275 435.954 266.046 427 255 427C243.954 427 235 435.954 235 447C235 458.046 243.954 467 255 467Z" fill="black"/>
<path d="M285 467C296.046 467 305 458.046 305 447C305 435.954 296.046 427 285 427C273.954 427 265 435.954 265 447C265 458.046 273.954 467 285 467Z" fill="black"/>
<path d="M315 467C326.046 467 335 458.046 335 447C335 435.954 326.046 427 315 427C303.954 427 295 435.954 295 447C295 458.046 303.954 467 315 467Z" fill="black"/>
<path d="M345 467C356.046 467 365 458.046 365 447C365 435.954 356.046 427 345 427C333.954 427 325 435.954 325 447C325 458.046 333.954 467 345 467Z" fill="black"/>
<path d="M375 467C386.046 467 395 458.046 395 447C395 435.954 386.046 427 375 427C363.954 427 355 435.954 355 447C355 458.046 363.954 467 375 467Z" fill="black"/>
<path d="M405 467C416.046 467 425 458.046 425 447C425 435.954 416.046 427 405 427C393.954 427 385 435.954 385 447C385 458.046 393.954 467 405 467Z" fill="black"/>
<path d="M435 467C446.046 467 455 458.046 455 447C455 435.954 446.046 427 435 427C423.954 427 415 435.954 415 447C415 458.046 423.954 467 435 467Z" fill="black"/>
<path d="M465 467C476.046 467 485 458.046 485 447C485 435.954 476.046 427 465 427C453.954 427 445 435.954 445 447C445 458.046 453.954 467 465 467Z" fill="black"/>
<path d="M495 467C506.046 467 515 458.046 515 447C515 435.954 506.046 427 495 427C483.954 427 475 435.954 475 447C475 458.046 483.954 467 495 467Z" fill="black"/>
<path d="M525 467C536.046 467 545 458.046 545 447C545 435.954 536.046 427 525 427C513.954 427 505 435.954 505 447C505 458.046 513.954 467 525 467Z" fill="black"/>
<path d="M555 467C566.046 467 575 458.046 575 447C575 435.954 566.046 427 555 427C543.954 427 535 435.954 535 447C535 458.046 543.954 467 555 467Z" fill="black"/>
<path d="M585 467C596.046 467 605 458.046 605 447C605 435.954 596.046 427 585 427C573.954 427 565 435.954 565 447C565 458.046 573.954 467 585 467Z" fill="black"/>
<path d="M615 467C626.046 467 635 458.046 635 447C635 435.954 626.046 427 615 427C603.954 427 595 435.954 595 447C595 458.046 603.954 467 615 467Z" fill="black"/>
<path d="M225 482C227.761 482 230 479.761 230 477C230 474.239 227.761 472 225 472C222.239 472 220 474.239 220 477C220 479.761 222.239 482 225 482Z" fill="black"/>
<path d="M195 452C197.761 452 200 449.761 200 447C200 444.239 197.761 442 195 442C192.239 442 190 444.239 190 447C190 449.761 192.239 452 195 452Z" fill="black"/>
<path d="M255 497C266.046 497 275 488.046 275 477C275 465.954 266.046 457 255 457C243.954 457 235 465.954 235 477C235 488.046 243.954 497 255 497Z" fill="black"/>
<path d="M285 497C296.046 497 305 488.046 305 477C305 465.954 296.046 457 285 457C273.954 457 265 465.954 265 477C265 488.046 273.954 497 285 497Z" fill="black"/>
<path d="M315 497C326.046 497 335 488.046 335 477C335 465.954 326.046 457 315 457C303.954 457 295 465.954 295 477C295 488.046 303.954 497 315 497Z" fill="black"/>
<path d="M345 497C356.046 497 365 488.046 365 477C365 465.954 356.046 457 345 457C333.954 457 325 465.954 325 477C325 488.046 333.954 497 345 497Z" fill="black"/>
<path d="M375 497C386.046 497 395 488.046 395 477C395 465.954 386.046 457 375 457C363.954 457 355 465.954 355 477C355 488.046 363.954 497 375 497Z" fill="black"/>
<path d="M405 497C416.046 497 425 488.046 425 477C425 465.954 416.046 457 405 457C393.954 457 385 465.954 385 477C385 488.046 393.954 497 405 497Z" fill="black"/>
<path d="M435 497C446.046 497 455 488.046 455 477C455 465.954 446.046 457 435 457C423.954 457 415 465.954 415 477C415 488.046 423.954 497 435 497Z" fill="black"/>
<path d="M465 497C476.046 497 485 488.046 485 477C485 465.954 476.046 457 465 457C453.954 457 445 465.954 445 477C445 488.046 453.954 497 465 497Z" fill="black"/>
<path d="M495 497C506.046 497 515 488.046 515 477C515 465.954 506.046 457 495 457C483.954 457 475 465.954 475 477C475 488.046 483.954 497 495 497Z" fill="black"/>
<path d="M525 497C536.046 497 545 488.046 545 477C545 465.954 536.046 457 525 457C513.954 457 505 465.954 505 477C505 488.046 513.954 497 525 497Z" fill="black"/>
<path d="M555 497C566.046 497 575 488.046 575 477C575 465.954 566.046 457 555 457C543.954 457 535 465.954 535 477C535 488.046 543.954 497 555 497Z" fill="black"/>
<path d="M585 497C596.046 497 605 488.046 605 477C605 465.954 596.046 457 585 457C573.954 457 565 465.954 565 477C565 488.046 573.954 497 585 497Z" fill="black"/>
<path d="M615 487C620.523 487 625 482.523 625 477C625 471.477 620.523 467 615 467C609.477 467 605 471.477 605 477C605 482.523 609.477 487 615 487Z" fill="black"/>
<path d="M255 517C260.523 517 265 512.523 265 507C265 501.477 260.523 497 255 497C249.477 497 245 501.477 245 507C245 512.523 249.477 517 255 517Z" fill="black"/>
<path d="M285 527C296.046 527 305 518.046 305 507C305 495.954 296.046 487 285 487C273.954 487 265 495.954 265 507C265 518.046 273.954 527 285 527Z" fill="black"/>
<path d="M315 527C326.046 527 335 518.046 335 507C335 495.954 326.046 487 315 487C303.954 487 295 495.954 295 507C295 518.046 303.954 527 315 527Z" fill="black"/>
<path d="M345 527C356.046 527 365 518.046 365 507C365 495.954 356.046 487 345 487C333.954 487 325 495.954 325 507C325 518.046 333.954 527 345 527Z" fill="black"/>
<path d="M375 527C386.046 527 395 518.046 395 507C395 495.954 386.046 487 375 487C363.954 487 355 495.954 355 507C355 518.046 363.954 527 375 527Z" fill="black"/>
<path d="M405 527C416.046 527 425 518.046 425 507C425 495.954 416.046 487 405 487C393.954 487 385 495.954 385 507C385 518.046 393.954 527 405 527Z" fill="black"/>
<path d="M435 527C446.046 527 455 518.046 455 507C455 495.954 446.046 487 435 487C423.954 487 415 495.954 415 507C415 518.046 423.954 527 435 527Z" fill="black"/>
<path d="M465 527C476.046 527 485 518.046 485 507C485 495.954 476.046 487 465 487C453.954 487 445 495.954 445 507C445 518.046 453.954 527 465 527Z" fill="black"/>
<path d="M495 527C506.046 527 515 518.046 515 507C515 495.954 506.046 487 495 487C483.954 487 475 495.954 475 507C475 518.046 483.954 527 495 527Z" fill="black"/>
<path d="M525 527C536.046 527 545 518.046 545 507C545 495.954 536.046 487 525 487C513.954 487 505 495.954 505 507C505 518.046 513.954 527 525 527Z" fill="black"/>
<path d="M555 527C566.046 527 575 518.046 575 507C575 495.954 566.046 487 555 487C543.954 487 535 495.954 535 507C535 518.046 543.954 527 555 527Z" fill="black"/>
<path d="M585 522C593.284 522 600 515.284 600 507C600 498.716 593.284 492 585 492C576.716 492 570 498.716 570 507C570 515.284 576.716 522 585 522Z" fill="black"/>
<path d="M615 512C617.761 512 620 509.761 620 507C620 504.239 617.761 502 615 502C612.239 502 610 504.239 610 507C610 509.761 612.239 512 615 512Z" fill="black"/>
<path d="M285 547C290.523 547 295 542.523 295 537C295 531.477 290.523 527 285 527C279.477 527 275 531.477 275 537C275 542.523 279.477 547 285 547Z" fill="black"/>
<path d="M315 557C326.046 557 335 548.046 335 537C335 525.954 326.046 517 315 517C303.954 517 295 525.954 295 537C295 548.046 303.954 557 315 557Z" fill="black"/>
<path d="M345 557C356.046 557 365 548.046 365 537C365 525.954 356.046 517 345 517C333.954 517 325 525.954 325 537C325 548.046 333.954 557 345 557Z" fill="black"/>
<path d="M375 557C386.046 557 395 548.046 395 537C395 525.954 386.046 517 375 517C363.954 517 355 525.954 355 537C355 548.046 363.954 557 375 557Z" fill="black"/>
<path d="M405 557C416.046 557 425 548.046 425 537C425 525.954 416.046 517 405 517C393.954 517 385 525.954 385 537C385 548.046 393.954 557 405 557Z" fill="black"/>
<path d="M435 557C446.046 557 455 548.046 455 537C455 525.954 446.046 517 435 517C423.954 517 415 525.954 415 537C415 548.046 423.954 557 435 557Z" fill="black"/>
<path d="M465 557C476.046 557 485 548.046 485 537C485 525.954 476.046 517 465 517C453.954 517 445 525.954 445 537C445 548.046 453.954 557 465 557Z" fill="black"/>
<path d="M495 557C506.046 557 515 548.046 515 537C515 525.954 506.046 517 495 517C483.954 517 475 525.954 475 537C475 548.046 483.954 557 495 557Z" fill="black"/>
<path d="M525 557C536.046 557 545 548.046 545 537C545 525.954 536.046 517 525 517C513.954 517 505 525.954 505 537C505 548.046 513.954 557 525 557Z" fill="black"/>
<path d="M555 552C563.284 552 570 545.284 570 537C570 528.716 563.284 522 555 522C546.716 522 540 528.716 540 537C540 545.284 546.716 552 555 552Z" fill="black"/>
<path d="M585 542C587.761 542 590 539.761 590 537C590 534.239 587.761 532 585 532C582.239 532 580 534.239 580 537C580 539.761 582.239 542 585 542Z" fill="black"/>
<path d="M315 577C320.523 577 325 572.523 325 567C325 561.477 320.523 557 315 557C309.477 557 305 561.477 305 567C305 572.523 309.477 577 315 577Z" fill="black"/>
<path d="M345 582C353.284 582 360 575.284 360 567C360 558.716 353.284 552 345 552C336.716 552 330 558.716 330 567C330 575.284 336.716 582 345 582Z" fill="black"/>
<path d="M375 587C386.046 587 395 578.046 395 567C395 555.954 386.046 547 375 547C363.954 547 355 555.954 355 567C355 578.046 363.954 587 375 587Z" fill="black"/>
<path d="M405 587C416.046 587 425 578.046 425 567C425 555.954 416.046 547 405 547C393.954 547 385 555.954 385 567C385 578.046 393.954 587 405 587Z" fill="black"/>
<path d="M435 587C446.046 587 455 578.046 455 567C455 555.954 446.046 547 435 547C423.954 547 415 555.954 415 567C415 578.046 423.954 587 435 587Z" fill="black"/>
<path d="M465 587C476.046 587 485 578.046 485 567C485 555.954 476.046 547 465 547C453.954 547 445 555.954 445 567C445 578.046 453.954 587 465 587Z" fill="black"/>
<path d="M495 587C506.046 587 515 578.046 515 567C515 555.954 506.046 547 495 547C483.954 547 475 555.954 475 567C475 578.046 483.954 587 495 587Z" fill="black"/>
<path d="M525 582C533.284 582 540 575.284 540 567C540 558.716 533.284 552 525 552C516.716 552 510 558.716 510 567C510 575.284 516.716 582 525 582Z" fill="black"/>
<path d="M555 572C557.761 572 560 569.761 560 567C560 564.239 557.761 562 555 562C552.239 562 550 564.239 550 567C550 569.761 552.239 572 555 572Z" fill="black"/>
<path d="M645 182C647.761 182 650 179.761 650 177C650 174.239 647.761 172 645 172C642.239 172 640 174.239 640 177C640 179.761 642.239 182 645 182Z" fill="black"/>
<path d="M645 217C650.523 217 655 212.523 655 207C655 201.477 650.523 197 645 197C639.477 197 635 201.477 635 207C635 212.523 639.477 217 645 217Z" fill="black"/>
<path d="M645 252C653.284 252 660 245.284 660 237C660 228.716 653.284 222 645 222C636.716 222 630 228.716 630 237C630 245.284 636.716 252 645 252Z" fill="black"/>
<path d="M645 287C656.046 287 665 278.046 665 267C665 255.954 656.046 247 645 247C633.954 247 625 255.954 625 267C625 278.046 633.954 287 645 287Z" fill="black"/>
<path d="M645 317C656.046 317 665 308.046 665 297C665 285.954 656.046 277 645 277C633.954 277 625 285.954 625 297C625 308.046 633.954 317 645 317Z" fill="black"/>
<path d="M645 347C656.046 347 665 338.046 665 327C665 315.954 656.046 307 645 307C633.954 307 625 315.954 625 327C625 338.046 633.954 347 645 347Z" fill="black"/>
<path d="M645 377C656.046 377 665 368.046 665 357C665 345.954 656.046 337 645 337C633.954 337 625 345.954 625 357C625 368.046 633.954 377 645 377Z" fill="black"/>
<path d="M645 407C656.046 407 665 398.046 665 387C665 375.954 656.046 367 645 367C633.954 367 625 375.954 625 387C625 398.046 633.954 407 645 407Z" fill="black"/>
<path d="M645 432C653.284 432 660 425.284 660 417C660 408.716 653.284 402 645 402C636.716 402 630 408.716 630 417C630 425.284 636.716 432 645 432Z" fill="black"/>
<path d="M645 457C650.523 457 655 452.523 655 447C655 441.477 650.523 437 645 437C639.477 437 635 441.477 635 447C635 452.523 639.477 457 645 457Z" fill="black"/>
<path d="M645 482C647.761 482 650 479.761 650 477C650 474.239 647.761 472 645 472C642.239 472 640 474.239 640 477C640 479.761 642.239 482 645 482Z" fill="black"/>
<path d="M675 242C677.761 242 680 239.761 680 237C680 234.239 677.761 232 675 232C672.239 232 670 234.239 670 237C670 239.761 672.239 242 675 242Z" fill="black"/>
<path d="M675 277C680.523 277 685 272.523 685 267C685 261.477 680.523 257 675 257C669.477 257 665 261.477 665 267C665 272.523 669.477 277 675 277Z" fill="black"/>
<path d="M675 307C680.523 307 685 302.523 685 297C685 291.477 680.523 287 675 287C669.477 287 665 291.477 665 297C665 302.523 669.477 307 675 307Z" fill="black"/>
<path d="M675 337C680.523 337 685 332.523 685 327C685 321.477 680.523 317 675 317C669.477 317 665 321.477 665 327C665 332.523 669.477 337 675 337Z" fill="black"/>
<path d="M675 367C680.523 367 685 362.523 685 357C685 351.477 680.523 347 675 347C669.477 347 665 351.477 665 357C665 362.523 669.477 367 675 367Z" fill="black"/>
<path d="M675 392C677.761 392 680 389.761 680 387C680 384.239 677.761 382 675 382C672.239 382 670 384.239 670 387C670 389.761 672.239 392 675 392Z" fill="black"/>
<path d="M675 422C677.761 422 680 419.761 680 417C680 414.239 677.761 412 675 412C672.239 412 670 414.239 670 417C670 419.761 672.239 422 675 422Z" fill="black"/>
<path d="M345 602C347.761 602 350 599.761 350 597C350 594.239 347.761 592 345 592C342.239 592 340 594.239 340 597C340 599.761 342.239 602 345 602Z" fill="black"/>
<path d="M375 607C380.523 607 385 602.523 385 597C385 591.477 380.523 587 375 587C369.477 587 365 591.477 365 597C365 602.523 369.477 607 375 607Z" fill="black"/>
<path d="M405 612C413.284 612 420 605.284 420 597C420 588.716 413.284 582 405 582C396.716 582 390 588.716 390 597C390 605.284 396.716 612 405 612Z" fill="black"/>
<path d="M435 617C446.046 617 455 608.046 455 597C455 585.954 446.046 577 435 577C423.954 577 415 585.954 415 597C415 608.046 423.954 617 435 617Z" fill="black"/>
<path d="M465 617C476.046 617 485 608.046 485 597C485 585.954 476.046 577 465 577C453.954 577 445 585.954 445 597C445 608.046 453.954 617 465 617Z" fill="black"/>
<path d="M495 612C503.284 612 510 605.284 510 597C510 588.716 503.284 582 495 582C486.716 582 480 588.716 480 597C480 605.284 486.716 612 495 612Z" fill="black"/>
<path d="M525 602C527.761 602 530 599.761 530 597C530 594.239 527.761 592 525 592C522.239 592 520 594.239 520 597C520 599.761 522.239 602 525 602Z" fill="black"/>
<path d="M405 632C407.761 632 410 629.761 410 627C410 624.239 407.761 622 405 622C402.239 622 400 624.239 400 627C400 629.761 402.239 632 405 632Z" fill="black"/>
<path d="M435 642C443.284 642 450 635.284 450 627C450 618.716 443.284 612 435 612C426.716 612 420 618.716 420 627C420 635.284 426.716 642 435 642Z" fill="black"/>
<path d="M465 637C470.523 637 475 632.523 475 627C475 621.477 470.523 617 465 617C459.477 617 455 621.477 455 627C455 632.523 459.477 637 465 637Z" fill="black"/>
<path d="M495 632C497.761 632 500 629.761 500 627C500 624.239 497.761 622 495 622C492.239 622 490 624.239 490 627C490 629.761 492.239 632 495 632Z" fill="black"/>
<path d="M465 672C473.284 672 480 665.284 480 657C480 648.716 473.284 642 465 642C456.716 642 450 648.716 450 657C450 665.284 456.716 672 465 672Z" fill="black"/>
<path d="M495 672C503.284 672 510 665.284 510 657C510 648.716 503.284 642 495 642C486.716 642 480 648.716 480 657C480 665.284 486.716 672 495 672Z" fill="black"/>
<path d="M495 697C500.523 697 505 692.523 505 687C505 681.477 500.523 677 495 677C489.477 677 485 681.477 485 687C485 692.523 489.477 697 495 697Z" fill="black"/>
<path d="M525 692C527.761 692 530 689.761 530 687C530 684.239 527.761 682 525 682C522.239 682 520 684.239 520 687C520 689.761 522.239 692 525 692Z" fill="black"/>
<path d="M525 727C530.523 727 535 722.523 535 717C535 711.477 530.523 707 525 707C519.477 707 515 711.477 515 717C515 722.523 519.477 727 525 727Z" fill="black"/>
<path d="M555 722C557.761 722 560 719.761 560 717C560 714.239 557.761 712 555 712C552.239 712 550 714.239 550 717C550 719.761 552.239 722 555 722Z" fill="black"/>
<path d="M555 757C560.523 757 565 752.523 565 747C565 741.477 560.523 737 555 737C549.477 737 545 741.477 545 747C545 752.523 549.477 757 555 757Z" fill="black"/>
<path d="M585 752C587.761 752 590 749.761 590 747C590 744.239 587.761 742 585 742C582.239 742 580 744.239 580 747C580 749.761 582.239 752 585 752Z" fill="black"/>
<path d="M585 787C590.523 787 595 782.523 595 777C595 771.477 590.523 767 585 767C579.477 767 575 771.477 575 777C575 782.523 579.477 787 585 787Z" fill="black"/>
<path d="M615 787C620.523 787 625 782.523 625 777C625 771.477 620.523 767 615 767C609.477 767 605 771.477 605 777C605 782.523 609.477 787 615 787Z" fill="black"/>
<path d="M675 787C680.523 787 685 782.523 685 777C685 771.477 680.523 767 675 767C669.477 767 665 771.477 665 777C665 782.523 669.477 787 675 787Z" fill="black"/>
<path d="M615 812C617.761 812 620 809.761 620 807C620 804.239 617.761 802 615 802C612.239 802 610 804.239 610 807C610 809.761 612.239 812 615 812Z" fill="black"/>
<path d="M645 817C650.523 817 655 812.523 655 807C655 801.477 650.523 797 645 797C639.477 797 635 801.477 635 807C635 812.523 639.477 817 645 817Z" fill="black"/>
<path d="M675 812C677.761 812 680 809.761 680 807C680 804.239 677.761 802 675 802C672.239 802 670 804.239 670 807C670 809.761 672.239 812 675 812Z" fill="black"/>
<path d="M705 822C713.284 822 720 815.284 720 807C720 798.716 713.284 792 705 792C696.716 792 690 798.716 690 807C690 815.284 696.716 822 705 822Z" fill="black"/>
</svg>
